<svg xmlns="http://www.w3.org/2000/svg" xmlns:xlink="http://www.w3.org/1999/xlink" width="20" height="20" viewBox="0 0 20 20">
  <defs>
    <clipPath id="clip-path">
      <rect id="Rectangle_42" data-name="Rectangle 42" width="20" height="20" transform="translate(38 166)" fill="#4c56c0"/>
    </clipPath>
  </defs>
  <g id="Mask_Group_11" data-name="Mask Group 11" transform="translate(-38 -166)" clip-path="url(#clip-path)">
    <g id="calendar_6_" data-name="calendar (6)" transform="translate(38 166)">
      <g id="Group_70" data-name="Group 70">
        <g id="Group_69" data-name="Group 69">
          <path id="Path_173" data-name="Path 173" d="M10.9,14.219a1.564,1.564,0,0,0,1.563,1.563H14.3a1.564,1.564,0,0,0,1.563-1.562V12.383A1.564,1.564,0,0,0,14.3,10.82H12.461A1.564,1.564,0,0,0,10.9,12.383Z"/>
          <circle id="Ellipse_19" data-name="Ellipse 19" cx="0.781" cy="0.781" r="0.781" transform="translate(14.297 7.422)"/>
          <circle id="Ellipse_20" data-name="Ellipse 20" cx="0.781" cy="0.781" r="0.781" transform="translate(10.898 7.422)"/>
          <path id="Path_174" data-name="Path 174" d="M19.219,13.75A.781.781,0,0,0,20,12.969V4.688a3.129,3.129,0,0,0-3.125-3.125H15.859V.781a.781.781,0,0,0-1.562,0v.781H10.742V.781a.781.781,0,0,0-1.562,0v.781H5.664V.781A.781.781,0,0,0,4.1.781v.781H3.125A3.129,3.129,0,0,0,0,4.688V16.875A3.129,3.129,0,0,0,3.125,20h13.75A3.129,3.129,0,0,0,20,16.875a.781.781,0,0,0-1.562,0,1.564,1.564,0,0,1-1.562,1.563H3.125a1.564,1.564,0,0,1-1.562-1.562V4.688A1.564,1.564,0,0,1,3.125,3.125H4.1v.781a.781.781,0,0,0,1.563,0V3.125H9.18v.781a.781.781,0,0,0,1.563,0V3.125H14.3v.781a.781.781,0,0,0,1.563,0V3.125h1.016a1.564,1.564,0,0,1,1.563,1.563v8.281A.781.781,0,0,0,19.219,13.75Z"/>
          <circle id="Ellipse_21" data-name="Ellipse 21" cx="0.781" cy="0.781" r="0.781" transform="translate(4.102 14.219)"/>
          <circle id="Ellipse_22" data-name="Ellipse 22" cx="0.781" cy="0.781" r="0.781" transform="translate(4.102 7.422)"/>
          <circle id="Ellipse_23" data-name="Ellipse 23" cx="0.781" cy="0.781" r="0.781" transform="translate(4.102 10.82)"/>
          <circle id="Ellipse_24" data-name="Ellipse 24" cx="0.781" cy="0.781" r="0.781" transform="translate(7.5 10.82)"/>
          <circle id="Ellipse_25" data-name="Ellipse 25" cx="0.781" cy="0.781" r="0.781" transform="translate(7.5 7.422)"/>
          <circle id="Ellipse_26" data-name="Ellipse 26" cx="0.781" cy="0.781" r="0.781" transform="translate(7.5 14.219)"/>
        </g>
      </g>
    </g>
  </g>
</svg>
